<?xml version="1.0" standalone="no"?>
<!DOCTYPE svg PUBLIC "-//W3C//DTD SVG 20010904//EN"
 "http://www.w3.org/TR/2001/REC-SVG-20010904/DTD/svg10.dtd">
<svg version="1.0" xmlns="http://www.w3.org/2000/svg"
 width="320.000000pt" height="320.000000pt" viewBox="0 0 320.000000 320.000000"
 preserveAspectRatio="xMidYMid meet">
<metadata>
Created by potrace 1.14, written by Peter Selinger 2001-2017
</metadata>
<g transform="translate(0.000000,320.000000) scale(0.100000,-0.100000)"
fill="#000000" stroke="none">
<path d="M465 2520 c-22 -3 -46 -9 -52 -13 -7 -5 -23 -10 -35 -12 -23 -5 -95
-58 -116 -87 -7 -9 -19 -24 -27 -32 -8 -8 -15 -21 -15 -29 0 -9 -4 -17 -10
-19 -10 -3 -22 -61 -24 -113 0 -16 -5 -33 -11 -37 -6 -5 -5 -8 3 -8 10 0 10
-5 2 -20 -7 -14 -7 -20 0 -20 5 0 10 -5 10 -11 0 -5 -4 -8 -8 -5 -4 2 -8 -4
-8 -14 0 -10 3 -17 7 -14 4 2 6 -7 5 -20 0 -13 -4 -22 -8 -19 -5 2 -8 -1 -8
-6 0 -6 3 -11 8 -11 4 0 7 -49 7 -109 0 -60 -3 -107 -7 -105 -4 3 -8 -2 -8
-11 0 -25 -24 -43 -73 -57 -25 -6 -44 -15 -41 -20 3 -4 -1 -8 -8 -8 -10 0 -13
-18 -11 -71 2 -107 7 -117 61 -140 57 -25 82 -46 75 -65 -3 -8 -1 -14 4 -14 5
0 9 -33 7 -72 -2 -83 5 -130 17 -123 4 3 2 -5 -5 -19 -7 -14 -12 -54 -11 -93
1 -40 -2 -71 -9 -75 -7 -5 -7 -8 0 -8 5 0 11 -19 13 -42 1 -24 9 -50 17 -59 7
-8 14 -19 14 -24 0 -13 54 -95 63 -95 5 0 15 -6 22 -13 57 -50 106 -67 208
-69 41 -1 62 3 68 13 12 19 11 159 -1 159 -5 0 -10 5 -10 11 0 15 -41 48 -61
49 -8 0 -21 6 -28 12 -11 11 -12 10 -6 0 6 -11 3 -11 -13 -1 -22 14 -42 50
-42 74 0 8 -5 15 -11 15 -5 0 -8 4 -5 9 4 5 0 12 -6 14 -8 3 -6 6 5 6 25 1 21
30 -8 57 -14 13 -21 26 -15 29 6 3 10 1 10 -4 0 -6 7 -11 15 -11 19 0 19 15 1
32 -11 11 -11 15 3 24 13 11 14 15 2 38 -8 14 -20 26 -28 26 -7 0 -12 3 -11 8
3 12 -64 77 -76 74 -6 -2 -8 -1 -5 3 8 7 -53 72 -63 67 -4 -2 -5 4 -1 14 6 15
7 15 15 0 12 -21 160 -166 170 -166 17 0 -4 43 -36 74 -20 18 -36 37 -36 42 0
4 14 -7 31 -24 17 -18 34 -32 38 -32 9 0 7 103 -3 118 -4 7 -3 12 3 12 7 0 7
9 0 28 -6 15 -9 27 -8 27 2 0 -34 68 -62 114 -12 20 -14 30 -6 23 7 -6 18 -8
22 -4 5 4 5 1 0 -7 -5 -9 -4 -12 3 -7 7 4 12 13 12 21 0 7 4 15 9 17 6 2 12
15 15 30 2 15 7 32 11 38 3 5 -19 34 -48 65 -30 30 -53 55 -51 55 2 0 -13 16
-34 37 -20 20 -26 28 -12 17 14 -10 51 -45 83 -77 31 -33 57 -55 57 -51 0 5 5
2 10 -6 8 -11 10 -7 8 18 -1 19 -6 36 -11 39 -4 2 -3 11 4 19 9 11 9 14 -1 14
-8 0 -10 3 -7 7 4 3 -5 16 -18 29 -14 13 -25 29 -25 36 0 9 -3 9 -10 -2 -5 -8
-10 -10 -10 -4 0 7 -20 33 -45 60 -69 72 -44 66 29 -8 67 -68 100 -91 88 -60
-8 22 -48 62 -56 56 -3 -2 -4 -1 -2 2 3 4 -16 26 -41 50 -25 24 -42 44 -37 44
4 0 -1 7 -12 16 -17 14 -17 15 -1 10 10 -3 21 -6 23 -6 2 0 4 -4 4 -9 0 -9
107 -121 115 -121 15 0 1 41 -22 64 -14 14 -23 29 -20 33 4 3 7 1 7 -5 0 -7 9
-12 21 -12 13 0 18 -4 13 -12 -5 -10 -4 -10 6 -2 21 20 15 86 -10 106 -12 10
-19 18 -15 18 5 0 -11 14 -33 30 -23 17 -42 33 -42 38 0 4 -14 22 -31 40 -16
17 -26 32 -21 32 5 0 17 -9 27 -20 10 -11 22 -17 27 -12 12 12 -1 44 -15 35
-5 -3 -7 -1 -3 5 3 5 0 13 -6 15 -9 4 -9 6 -1 6 11 1 103 -87 103 -99 0 -3 9
-6 19 -7 13 -1 19 4 18 17 -1 11 -6 16 -16 12 -8 -3 -12 -1 -9 4 3 5 -12 26
-34 47 -21 20 -38 34 -38 30 0 -5 -5 -1 -10 7 -5 8 -9 22 -9 30 0 10 2 11 6 2
2 -6 10 -9 16 -5 7 3 9 3 5 -2 -8 -8 28 -45 44 -45 4 0 8 -5 8 -11 0 -14 25
-39 39 -39 6 0 11 -4 11 -10 0 -13 27 -13 32 -1 2 5 17 11 33 13 39 4 73 29
69 51 -1 9 2 15 7 11 5 -3 9 29 9 75 0 74 -2 80 -22 87 -30 10 -54 11 -103 4z
m-65 -95 c0 -5 -5 -3 -10 5 -5 8 -10 20 -10 25 0 6 5 3 10 -5 5 -8 10 -19 10
-25z m-9 -35 c12 0 12 -2 0 -9 -16 -10 -53 17 -44 32 3 6 11 3 18 -6 7 -10 18
-17 26 -17z m40 13 c13 -16 12 -17 -3 -4 -10 7 -18 15 -18 17 0 8 8 3 21 -13z
m89 -25 c0 -16 -16 -7 -34 19 l-20 27 27 -20 c14 -10 27 -22 27 -26z m-100
-28 c11 -11 20 -22 20 -25 0 -9 -40 19 -44 32 -7 19 1 16 24 -7z m-54 -207
c-7 -7 -106 93 -106 108 0 5 25 -16 56 -46 31 -31 54 -58 50 -62z m-65 17 c6
0 7 -5 4 -10 -6 -10 -55 32 -55 47 0 4 9 -3 20 -15 12 -12 25 -22 31 -22z m46
-66 c-4 -4 -14 1 -22 12 -22 29 -18 41 7 17 12 -13 19 -26 15 -29z m-97 -86
c0 -6 3 -9 6 -5 6 6 73 -53 73 -66 1 -4 16 -20 33 -37 18 -16 29 -29 23 -30
-14 0 -105 87 -98 94 4 3 -2 6 -12 6 -10 0 -16 3 -12 6 3 4 -4 15 -16 25 -12
10 -16 18 -9 19 6 0 12 -5 12 -12z m0 -188 c0 -5 -2 -10 -4 -10 -3 0 -8 5 -11
10 -3 6 -1 10 4 10 6 0 11 -4 11 -10z m78 -25 c-3 -3 -9 2 -12 12 -6 14 -5 15
5 6 7 -7 10 -15 7 -18z m-22 -33 c-5 -4 -46 35 -46 45 0 3 11 -4 25 -17 14
-13 23 -25 21 -28z m-41 -21 c-6 -5 -25 10 -25 20 0 5 6 4 14 -3 8 -7 12 -15
11 -17z m79 -9 c3 -5 -1 -9 -9 -9 -8 0 -12 4 -9 9 3 4 7 8 9 8 2 0 6 -4 9 -8z
m-162 -92 c15 -16 33 -30 39 -30 5 0 7 -5 4 -10 -3 -6 1 -13 9 -16 9 -3 16
-12 16 -19 0 -8 9 -16 19 -20 11 -3 23 -15 26 -26 4 -10 11 -17 16 -14 5 4 9
1 9 -4 0 -6 -3 -11 -6 -11 -6 0 -114 108 -158 158 -29 33 -7 26 26 -8z m53 1
c-6 -5 -25 10 -25 20 0 5 6 4 14 -3 8 -7 12 -15 11 -17z m59 13 c10 -25 1 -27
-19 -4 -15 17 -16 20 -3 20 9 0 19 -7 22 -16z m23 -36 c-3 -8 -6 -5 -6 6 -1
11 2 17 5 13 3 -3 4 -12 1 -19z m17 -77 c-5 -6 -44 30 -44 41 0 5 11 -2 24
-14 13 -13 22 -25 20 -27z m-75 -49 c-12 -5 -49 30 -42 41 3 5 15 -2 28 -14
12 -13 19 -25 14 -27z m-62 -14 c-3 -8 -6 -5 -6 6 -1 11 2 17 5 13 3 -3 4 -12
1 -19z m106 -18 c19 -23 21 -30 8 -30 -5 0 -13 9 -16 20 -4 11 -11 18 -16 15
-5 -4 -9 -1 -9 4 0 17 14 13 33 -9z m28 -47 c-12 -20 -14 -14 -5 12 4 9 9 14
11 11 3 -2 0 -13 -6 -23z m-66 -51 c-3 -3 -11 0 -18 7 -9 10 -8 11 6 5 10 -3
15 -9 12 -12z m37 -32 c10 -10 13 -22 8 -25 -5 -3 -11 4 -15 15 -4 11 -11 18
-16 15 -5 -4 -9 -1 -9 4 0 17 14 13 32 -9z m-44 -25 c11 -13 22 -21 26 -18 3
3 6 2 6 -4 0 -5 9 -20 20 -33 11 -13 20 -20 20 -15 0 4 9 -3 19 -16 22 -27 20
-38 -3 -18 -41 36 -86 81 -86 86 0 3 -10 14 -22 24 -11 11 -16 19 -10 19 6 0
19 -11 30 -25z m87 -25 c4 -11 11 -18 16 -15 5 4 9 1 9 -4 0 -19 -17 -12 -34
14 -9 14 -12 25 -7 25 5 0 13 -9 16 -20z m-66 -50 c6 0 11 -3 11 -7 0 -5 22
-31 49 -60 27 -28 47 -54 44 -56 -3 -3 -22 14 -43 38 -21 24 -41 41 -44 38 -3
-4 -6 -1 -6 6 0 7 -13 24 -30 38 -16 13 -30 30 -30 35 0 6 8 1 19 -10 10 -12
23 -22 30 -22z m131 5 c0 -2 -9 -3 -19 -2 -11 0 -18 5 -15 9 4 6 34 0 34 -7z
m-162 -60 c-3 -3 -9 2 -12 12 -6 14 -5 15 5 6 7 -7 10 -15 7 -18z m55 -48 c-3
-4 -13 2 -24 14 -26 30 -24 34 5 12 13 -10 22 -22 19 -26z m-62 9 c5 3 8 1 7
-4 -2 -6 1 -10 5 -11 4 0 25 -21 47 -46 22 -26 40 -43 40 -40 0 3 5 3 10 0 6
-4 8 -11 4 -16 -6 -10 -135 112 -133 127 0 5 3 3 6 -4 2 -6 9 -10 14 -6z m109
-58 c0 -4 -9 0 -20 9 -11 10 -20 21 -20 25 0 4 9 0 20 -9 11 -10 20 -21 20
-25z m-64 -47 c-3 -4 6 -15 20 -25 13 -11 24 -25 24 -33 0 -8 -16 4 -35 27
-39 47 -41 52 -20 44 8 -4 13 -9 11 -13z m79 -90 c-6 -5 -25 10 -25 20 0 5 6
4 14 -3 8 -7 12 -15 11 -17z m-60 -61 c3 -5 1 -10 -4 -10 -6 0 -11 5 -11 10 0
6 2 10 4 10 3 0 8 -4 11 -10z"/>
<path d="M2603 2453 c-14 -29 -1 -204 14 -189 3 3 11 -1 17 -9 6 -8 25 -16 43
-17 17 -1 30 -5 27 -9 -2 -4 7 -10 21 -13 18 -5 26 -15 32 -44 4 -20 6 -45 4
-56 -2 -13 1 -16 11 -10 10 6 11 5 2 -7 -13 -16 -13 -77 -1 -96 5 -7 5 -13 1
-13 -4 0 3 -12 17 -27 13 -15 17 -22 9 -16 -28 22 -36 0 -35 -102 1 -107 11
-175 27 -175 5 0 7 -4 4 -8 -3 -5 4 -18 14 -30 11 -12 20 -28 20 -37 0 -8 6
-15 13 -15 7 0 5 -4 -4 -10 -19 -11 -59 -83 -59 -106 0 -8 -3 -13 -7 -11 -5 3
-9 -101 -10 -231 -2 -224 -11 -301 -33 -287 -5 3 -11 1 -15 -5 -3 -5 -17 -10
-30 -10 -36 0 -74 -20 -82 -44 -4 -12 -7 -52 -8 -91 -2 -94 6 -103 93 -98 75
4 192 52 192 79 0 8 -12 26 -26 39 -33 31 -23 33 15 4 28 -21 79 -19 66 2 -4
5 -2 9 3 9 19 0 64 132 58 168 -3 12 -2 22 2 22 19 0 -3 110 -22 110 -6 0 -3
5 7 11 19 11 24 39 6 39 -5 0 -8 3 -6 8 3 4 -1 13 -9 20 -8 7 -14 10 -14 7 0
-3 -18 14 -40 36 -22 23 -40 46 -40 52 0 6 -3 8 -6 4 -7 -7 -54 41 -54 56 0 5
11 -2 24 -16 13 -14 27 -23 30 -20 3 4 6 2 6 -3 0 -17 67 -84 75 -76 5 4 5 2
2 -4 -6 -11 10 -23 38 -29 9 -2 12 71 4 100 -1 6 1 36 5 67 7 51 11 58 40 70
17 7 34 12 39 10 4 -1 7 3 7 8 0 6 7 10 15 10 25 0 42 51 41 120 -2 77 -12 99
-49 102 -15 1 -27 6 -27 11 0 4 -4 6 -9 3 -12 -8 -51 28 -51 48 0 9 -5 16 -11
16 -5 0 -7 5 -4 11 7 10 7 271 1 394 -3 60 -46 182 -59 169 -4 -4 -7 -1 -7 7
-1 15 -101 89 -120 89 -6 0 -9 4 -6 8 5 9 -7 11 -116 18 -67 5 -78 3 -85 -13z
m320 -297 c2 3 7 -4 10 -16 3 -11 4 -20 3 -20 -7 0 -65 60 -58 60 4 0 -1 5
-10 11 -10 5 -18 15 -18 21 0 6 15 -5 34 -25 18 -20 36 -34 39 -31z m-28 -44
c-6 -7 -34 11 -29 19 3 5 11 3 19 -4 7 -6 12 -13 10 -15z m-5 -57 c7 -8 8 -15
2 -15 -5 0 -15 7 -22 15 -7 8 -8 15 -2 15 5 0 15 -7 22 -15z m36 -40 c4 -8 10
-12 15 -9 5 3 9 3 9 0 0 -15 -20 -13 -35 4 -11 12 -13 20 -6 20 6 0 14 -7 17
-15z m-67 -52 c2 -2 -2 -3 -10 -3 -8 0 -20 10 -28 23 l-14 22 24 -20 c13 -11
26 -21 28 -22z m36 28 c3 -5 0 -13 -6 -17 -7 -4 -9 -3 -5 4 3 5 0 13 -6 15 -9
4 -10 6 -1 6 6 1 14 -3 18 -8z m-10 -50 c10 -17 -12 -21 -25 -6 -10 12 -10 15
3 15 9 0 18 -4 22 -9z m20 -31 c3 -5 1 -10 -4 -10 -6 0 -11 5 -11 10 0 6 2 10
4 10 3 0 8 -4 11 -10z m4 -74 c0 -7 -2 -6 -6 2 -2 6 -8 10 -12 8 -4 -3 -8 1
-8 9 0 11 4 12 14 4 7 -6 13 -17 12 -23z m86 -145 c-3 -2 -16 8 -29 22 -13 14
-27 23 -30 20 -3 -4 -6 1 -6 11 0 9 -4 15 -9 11 -5 -3 -12 4 -16 15 -3 11 -10
20 -15 20 -4 0 -11 8 -14 17 -4 9 22 -12 58 -47 36 -35 63 -66 61 -69z m-120
69 c-3 -4 16 -26 40 -49 25 -23 45 -47 45 -52 0 -6 5 -7 10 -4 6 3 10 1 10 -4
0 -6 -3 -11 -7 -11 -7 0 -123 118 -123 124 0 1 7 3 15 3 8 0 12 -3 10 -7z m75
-214 c24 -27 24 -28 3 -15 -13 8 -23 17 -23 22 0 4 -4 5 -10 2 -6 -4 -7 1 -3
11 3 10 2 15 -3 12 -5 -3 -15 0 -22 8 -7 8 -10 14 -7 14 4 0 -7 12 -24 26 -17
14 -31 30 -31 35 0 9 72 -59 120 -115z m-19 87 c9 -10 25 -24 37 -32 11 -8 19
-18 16 -23 -3 -4 2 -8 11 -8 9 0 13 -4 10 -10 -3 -5 -1 -10 6 -10 7 0 9 -3 6
-7 -4 -3 -32 19 -63 50 -32 32 -53 57 -48 57 5 0 17 -8 25 -17z m89 -29 c0 9
40 -38 40 -48 0 -3 -18 11 -40 31 -21 20 -36 41 -33 46 3 5 12 -1 19 -14 7
-13 13 -20 14 -15z m-80 -116 c0 -5 -11 3 -25 18 -14 15 -25 29 -25 32 0 3 11
-5 25 -18 14 -13 25 -27 25 -32z m-36 -19 c15 -17 26 -32 24 -34 -2 -3 -18 11
-36 30 -17 19 -28 35 -23 35 4 0 20 -14 35 -31z m4 -64 c56 -60 39 -63 -19 -3
-26 27 -41 48 -35 48 7 0 31 -20 54 -45z m-68 0 c0 8 26 -19 74 -75 l21 -25
-24 20 c-42 35 -61 55 -61 66 0 5 -4 8 -9 5 -5 -3 -16 7 -25 22 l-17 27 20
-24 c12 -13 21 -20 21 -16z m120 -128 c0 -4 -6 -2 -14 5 -8 7 -12 17 -9 22 5
8 23 -12 23 -27z m-80 -31 c0 -11 -19 -15 -25 -6 -3 5 1 10 9 10 9 0 16 -2 16
-4z m-26 -39 c3 4 6 1 6 -5 0 -21 -17 -13 -34 16 l-17 27 19 -22 c11 -12 22
-19 26 -16z m41 23 c-3 -5 -1 -10 6 -10 7 0 10 -3 6 -6 -9 -9 -28 6 -22 17 4
5 8 9 11 9 3 0 2 -4 -1 -10z m-5 -124 c0 2 9 -5 20 -16 22 -22 25 -30 11 -30
-10 0 -114 106 -120 123 -2 6 17 -9 42 -35 26 -25 47 -45 47 -42z m73 54 c9
-11 13 -20 9 -20 -4 0 -15 9 -25 20 -9 11 -13 20 -9 20 4 0 15 -9 25 -20z
m-38 -28 c-3 -3 -11 0 -18 7 -9 10 -8 11 6 5 10 -3 15 -9 12 -12z m25 -27 c11
-13 10 -14 -4 -9 -9 3 -16 10 -16 15 0 13 6 11 20 -6z m-85 -39 c20 -19 32
-37 27 -40 -9 -6 -42 28 -42 45 0 5 -3 8 -7 6 -5 -3 -14 1 -21 9 -27 29 8 13
43 -20z m-22 -46 c18 -16 36 -30 40 -30 5 0 5 -4 2 -10 -3 -5 0 -10 7 -10 12
0 43 -38 36 -45 -2 -2 -32 26 -68 61 -64 63 -79 92 -17 34z m88 -18 c27 -31
31 -42 15 -36 -8 3 -18 14 -21 25 -4 11 -11 17 -16 14 -5 -4 -9 -1 -9 4 0 16
14 13 31 -7z m-121 -12 c0 -5 -2 -10 -4 -10 -3 0 -8 5 -11 10 -3 6 -1 10 4 10
6 0 11 -4 11 -10z m65 -52 c5 4 5 1 1 -6 -6 -11 -12 -10 -27 4 -10 9 -19 22
-19 27 0 6 8 0 19 -11 10 -12 22 -18 26 -14z m-37 -39 c18 -17 32 -36 32 -43
0 -6 -5 -3 -10 6 -6 9 -25 28 -43 42 -17 14 -27 26 -21 26 5 0 25 -14 42 -31z
m-24 -36 l20 -27 -27 20 c-14 10 -28 24 -31 31 -8 20 18 4 38 -24z m-106 -38
c-3 -3 -9 2 -12 12 -6 14 -5 15 5 6 7 -7 10 -15 7 -18z m107 -31 c9 -15 12
-23 6 -20 -11 7 -35 46 -28 46 3 0 12 -12 22 -26z m-105 -12 c0 -5 -7 -9 -15
-9 -8 0 -12 4 -9 9 3 4 9 8 15 8 5 0 9 -4 9 -8z"/>
<path d="M774 2424 c-5 -1 -20 -5 -34 -8 -14 -3 -39 -18 -56 -33 l-30 -28 2
-310 c1 -170 3 -314 4 -320 1 -5 1 -14 0 -20 -7 -27 -6 -152 1 -166 5 -9 4
-20 -2 -26 -6 -6 -4 -22 5 -45 9 -19 12 -38 9 -42 -4 -3 -1 -6 5 -6 7 0 12 -7
12 -14 0 -8 31 -48 70 -88 38 -40 70 -69 70 -65 0 4 10 2 23 -5 51 -28 96 -40
174 -43 77 -3 82 -2 89 18 10 31 11 127 1 127 -5 0 -6 4 -3 9 3 5 -4 20 -15
35 -16 20 -29 26 -58 26 -75 0 -145 54 -169 130 -10 34 -10 200 1 193 6 -4 7
-1 2 8 -12 19 -15 119 -3 119 5 0 6 5 3 10 -3 6 -3 10 2 11 4 0 17 2 28 4 11
3 43 6 70 9 28 2 59 8 70 12 26 10 65 54 66 77 2 25 4 31 12 44 4 6 3 14 -1
17 -5 3 -8 17 -7 30 4 32 -5 35 -122 37 -54 1 -105 7 -113 13 -12 9 -16 37
-17 139 -1 70 -5 131 -7 136 -6 8 -64 19 -82 15z m-84 -494 c0 -5 -2 -10 -4
-10 -3 0 -8 5 -11 10 -3 6 -1 10 4 10 6 0 11 -4 11 -10z m64 -370 c-6 -5 -24
21 -24 34 0 6 6 1 14 -10 8 -10 12 -21 10 -24z m-7 -105 c0 -8 -4 -12 -9 -9
-4 3 -8 9 -8 15 0 5 4 9 8 9 5 0 9 -7 9 -15z m34 -32 c13 -16 12 -17 -3 -4
-17 13 -22 21 -14 21 2 0 10 -8 17 -17z"/>
<path d="M322 2287 c-10 -11 -9 -17 3 -27 8 -7 12 -16 9 -21 -3 -5 3 -6 12 -2
10 3 15 2 12 -3 -7 -11 17 -35 26 -27 3 4 6 1 6 -5 0 -7 6 -12 14 -12 9 0 12
7 9 20 -3 12 -7 19 -10 17 -5 -6 -60 49 -65 64 -2 7 -8 6 -16 -4z"/>
<path d="M1373 2101 c-18 -12 -33 -25 -33 -31 0 -5 -8 -10 -17 -10 -14 0 -15
-2 -4 -9 9 -6 10 -10 2 -12 -7 -3 -13 -14 -14 -27 0 -12 -5 -22 -9 -22 -4 0
-8 -5 -8 -11 0 -5 4 -7 10 -4 7 4 7 -3 0 -20 -7 -19 -7 -24 1 -19 7 4 6 -2 -1
-17 -10 -17 -10 -24 -2 -27 9 -3 9 -9 2 -23 -7 -13 -7 -19 0 -19 5 0 10 -5 10
-11 0 -5 -6 -7 -12 -3 -10 6 -10 4 0 -7 6 -7 12 -17 12 -22 0 -4 -6 -5 -12 -1
-10 6 -10 5 -1 -7 10 -12 10 -18 0 -28 -9 -9 -9 -14 3 -22 11 -8 12 -12 3 -16
-7 -2 -13 -9 -13 -14 0 -6 5 -7 11 -3 7 4 7 -1 -1 -16 -9 -17 -9 -21 0 -15 8
5 10 2 6 -12 -4 -13 5 -30 32 -57 25 -27 30 -35 15 -27 -13 6 -23 16 -23 20 0
5 -9 11 -21 14 -16 4 -19 2 -14 -11 8 -20 9 -28 1 -59 -3 -14 0 -23 7 -23 7 0
6 -4 -3 -10 -13 -8 -13 -10 0 -10 11 0 11 -3 2 -12 -8 -8 -9 -15 -1 -25 9 -10
8 -13 -2 -13 -11 0 -11 -3 1 -11 11 -8 12 -12 3 -16 -7 -2 -13 -9 -13 -14 0
-6 6 -7 13 -3 8 5 8 2 -2 -9 -10 -13 -10 -17 -1 -17 10 0 10 -3 0 -15 -10 -12
-10 -19 -2 -27 8 -8 8 -17 0 -32 -8 -15 -8 -21 1 -24 9 -3 9 -8 -1 -20 -11
-13 -11 -14 2 -7 12 7 13 6 3 -6 -10 -12 -9 -20 2 -36 13 -18 24 -20 93 -19
82 1 109 13 115 53 1 10 6 24 10 31 5 7 3 12 -3 12 -6 0 -8 5 -4 11 10 17 12
82 2 102 -6 11 -5 17 2 17 6 0 8 5 3 13 -12 20 -12 37 0 37 8 0 8 3 2 8 -13 9
-14 62 -2 62 5 0 5 5 -1 13 -5 6 -6 21 -2 32 4 11 4 28 -1 37 -6 11 -5 19 2
24 8 4 7 9 -2 15 -12 8 -11 11 1 19 8 5 10 10 4 10 -14 0 -13 32 1 42 6 5 5 8
-3 8 -9 0 -10 5 -4 18 5 9 8 25 7 35 -2 9 1 17 5 17 5 0 11 9 15 19 10 33 63
60 108 55 47 -4 97 -25 97 -39 0 -6 5 -16 12 -23 6 -6 13 -39 14 -73 2 -34 5
-68 8 -75 3 -7 1 -16 -4 -19 -5 -3 -6 -15 -1 -27 4 -12 5 -37 1 -55 -5 -19 -4
-33 2 -33 5 0 6 -5 2 -11 -9 -15 -9 -132 0 -147 4 -7 4 -12 -1 -12 -10 0 -11
-83 0 -91 4 -3 3 -17 -2 -32 -14 -36 9 -52 78 -54 94 -3 138 20 136 72 0 11 5
23 10 27 6 5 5 8 -3 8 -9 0 -10 5 -2 19 13 26 13 34 -2 25 -10 -6 -10 -5 -1 7
10 12 10 18 0 29 -9 10 -9 11 1 6 13 -8 13 19 -1 42 -5 7 -4 12 2 12 13 0 10
22 -4 32 -6 5 -6 8 2 8 12 0 12 24 0 36 -3 4 -1 16 5 28 6 11 11 21 11 21 0 0
-5 10 -12 23 -7 14 -8 22 -1 22 12 0 9 22 -5 32 -6 5 -5 8 4 8 11 0 11 3 1 15
-7 8 -8 15 -2 15 5 0 9 14 8 30 0 17 -4 30 -9 30 -4 0 -5 6 0 13 4 6 9 23 11
37 2 13 7 30 13 36 5 6 6 14 2 17 -3 4 -1 7 5 7 6 0 18 7 26 16 11 11 16 12
16 3 0 -7 6 -4 14 6 8 11 13 22 11 26 -2 3 19 -2 46 -11 28 -10 67 -34 88 -54
26 -26 40 -33 49 -26 9 7 9 7 2 -2 -6 -7 -5 -19 2 -32 10 -18 9 -19 -4 -8 -14
11 -16 -15 -17 -253 -1 -174 2 -264 9 -260 6 3 7 0 4 -9 -8 -22 50 -55 90 -51
17 2 40 4 50 4 19 1 19 1 0 24 l-19 22 25 -20 c14 -11 28 -24 31 -28 10 -14
39 22 32 40 -5 12 -3 14 8 8 11 -7 12 -6 3 6 -7 9 -11 101 -12 270 -1 311 -5
347 -47 410 -14 21 -25 43 -25 47 0 5 -18 22 -40 37 -22 15 -40 32 -40 38 0 6
-3 7 -7 4 -3 -4 -21 2 -39 14 -18 11 -43 23 -56 26 -39 10 -168 11 -168 1 0
-5 -4 -7 -8 -4 -14 9 -79 -15 -108 -40 -15 -13 -36 -24 -47 -24 -20 0 -77 29
-89 45 -4 6 -8 7 -8 2 0 -4 -14 0 -31 9 -39 20 -149 27 -149 10 0 -7 5 -17 12
-24 9 -9 9 -12 0 -12 -6 0 -14 11 -18 25 -6 25 -18 32 -28 17 -3 -5 -20 -7
-38 -5 -126 15 -143 14 -175 -6z m121 -56 c9 -14 14 -25 11 -25 -10 0 -37 30
-28 30 4 0 1 5 -7 10 -8 5 -10 10 -4 10 7 0 19 -11 28 -25z m110 9 c3 -8 2
-12 -4 -9 -6 3 -10 10 -10 16 0 14 7 11 14 -7z m118 -67 c-2 -4 -18 11 -36 32
-19 22 -37 37 -41 33 -5 -4 -5 -1 -1 6 5 9 18 2 45 -25 20 -21 35 -41 33 -46z
m-270 49 c7 4 8 2 4 -5 -10 -15 -26 -4 -25 17 1 15 2 15 6 -1 2 -9 9 -14 15
-11z m671 -28 c-2 -5 1 -8 8 -8 7 0 9 -3 5 -7 -4 -4 -18 6 -31 21 -31 37 -32
42 -1 19 13 -10 22 -21 19 -25z m-619 -97 c-3 -3 -55 41 -78 67 -6 7 -19 21
-28 30 -10 9 -18 20 -18 24 0 4 29 -20 64 -55 35 -34 62 -64 60 -66z m131 109
c3 -6 -1 -7 -9 -4 -18 7 -21 14 -7 14 6 0 13 -4 16 -10z m190 -8 c-3 -3 -11 0
-18 7 -9 10 -8 11 6 5 10 -3 15 -9 12 -12z m-305 -49 c0 -5 -20 7 -42 26 -10
9 -18 19 -18 23 0 5 14 -4 30 -19 17 -14 30 -28 30 -30z m100 19 c0 -1 -9 2
-20 8 -11 6 -20 15 -20 20 0 6 9 2 20 -7 11 -10 20 -19 20 -21z m400 13 c13
-14 21 -25 17 -25 -3 0 -17 11 -31 25 -14 14 -22 25 -17 25 4 0 18 -11 31 -25z
m185 -13 c-3 -3 -11 0 -18 7 -9 10 -8 11 6 5 10 -3 15 -9 12 -12z m84 -19 c17
-20 31 -34 31 -30 0 3 20 -15 44 -41 24 -26 42 -50 39 -55 -3 -4 -11 -3 -19 4
-7 6 -12 14 -9 18 5 10 -32 41 -39 34 -3 -4 -6 -2 -6 4 0 6 -21 32 -47 57 -25
25 -42 46 -36 46 6 0 25 -16 42 -37z m-899 15 c0 -4 -4 -8 -9 -8 -6 0 -12 4
-15 8 -3 5 1 9 9 9 8 0 15 -4 15 -9z m770 2 c0 -5 -5 -10 -11 -10 -5 0 -7 5
-4 10 3 6 8 10 11 10 2 0 4 -4 4 -10z m189 -16 c4 3 8 -1 8 -9 0 -10 -5 -10
-23 3 -12 9 -20 21 -17 26 3 5 10 1 15 -8 5 -9 13 -14 17 -12z m-594 -2 c-3
-3 -11 0 -18 7 -9 10 -8 11 6 5 10 -3 15 -9 12 -12z m178 4 c4 -10 1 -13 -9
-9 -7 3 -14 9 -14 14 0 14 17 10 23 -5z m-45 -14 c2 -7 -1 -12 -8 -12 -6 0 -9
4 -6 9 4 5 1 12 -4 14 -6 3 -5 4 2 3 6 -1 14 -8 16 -14z m360 -7 c13 -14 21
-30 19 -37 -3 -8 -6 -6 -6 5 -1 10 -5 15 -11 12 -5 -3 -10 -2 -10 4 0 5 -7 17
-16 25 -8 9 -12 16 -7 16 4 0 19 -11 31 -25z m-808 -20 c18 -19 32 -36 29 -37
-2 -2 -21 14 -42 34 -20 21 -34 38 -29 38 4 0 23 -16 42 -35z m-72 0 c-3 -3
-9 2 -12 12 -6 14 -5 15 5 6 7 -7 10 -15 7 -18z m397 -25 c12 -20 -7 -9 -38
21 l-32 32 32 -22 c18 -12 35 -26 38 -31z m27 30 c12 -11 16 -20 10 -20 -7 0
-21 9 -32 20 -11 11 -15 20 -10 20 6 0 20 -9 32 -20z m48 9 c0 -5 5 -7 10 -4
6 4 9 1 8 -7 -2 -7 3 -12 10 -10 8 1 11 -2 7 -8 -3 -5 -1 -10 4 -10 6 0 11 -7
11 -15 0 -8 6 -15 14 -15 8 0 21 -9 29 -20 8 -11 17 -17 22 -12 5 4 5 2 2 -5
-4 -6 -2 -13 5 -15 8 -3 6 -7 -5 -11 -9 -3 -16 -3 -15 1 2 12 -14 42 -21 38
-3 -2 -29 21 -58 50 -29 30 -45 54 -37 54 7 0 14 -5 14 -11z m94 -48 c-2 -3
-13 5 -24 16 -10 12 -16 23 -13 27 3 3 14 -5 23 -17 10 -12 16 -24 14 -26z
m-450 -80 c-4 -5 -104 99 -104 108 0 3 24 -19 54 -49 30 -30 52 -57 50 -59z
m506 87 c0 -6 -6 -5 -15 2 -8 7 -15 14 -15 16 0 2 7 1 15 -2 8 -4 15 -11 15
-16z m-125 -43 c23 -24 40 -47 37 -50 -3 -2 -16 10 -29 27 -12 18 -23 29 -23
25 0 -4 -6 -2 -14 5 -8 7 -12 16 -10 20 2 3 -2 9 -8 11 -7 3 -9 6 -4 6 5 1 28
-19 51 -44z m109 8 c23 -28 17 -30 -12 -4 -12 10 -19 21 -15 25 3 3 7 5 7 4 1
-2 10 -13 20 -25z m403 -43 c5 0 10 -7 10 -15 0 -9 -18 1 -47 28 -25 23 -45
45 -43 50 3 4 19 -9 37 -28 18 -19 38 -35 43 -35z m-992 42 c-3 -3 -11 0 -18
7 -9 10 -8 11 6 5 10 -3 15 -9 12 -12z m40 -36 c13 -14 26 -23 29 -20 3 2 4 1
1 -2 -2 -4 5 -15 17 -26 12 -10 18 -21 15 -24 -3 -4 -29 17 -58 45 -28 28 -46
51 -39 51 7 0 23 -11 35 -24z m0 -68 l70 -73 -75 70 c-41 39 -76 71 -79 73 -2
1 0 2 5 2 5 0 41 -33 79 -72z m1010 61 c11 -16 1 -19 -13 -3 -7 8 -8 14 -3 14
5 0 13 -5 16 -11z m-575 -21 c0 -6 -6 -5 -15 2 -8 7 -15 14 -15 16 0 2 7 1 15
-2 8 -4 15 -11 15 -16z m468 16 c-4 -3 10 -22 30 -41 21 -20 28 -29 17 -21
-64 49 -79 68 -53 68 6 0 9 -3 6 -6z m85 -33 c3 -13 1 -18 -9 -14 -7 2 -10 11
-7 19 7 19 10 18 16 -5z m-1043 -26 c0 -8 -2 -15 -4 -15 -2 0 -6 7 -10 15 -3
8 -1 15 4 15 6 0 10 -7 10 -15z m30 -30 c14 -19 14 -19 -2 -6 -10 7 -18 18
-18 24 0 6 1 8 3 6 1 -2 9 -13 17 -24z m950 11 c0 -3 -4 -8 -10 -11 -5 -3 -10
-1 -10 4 0 6 5 11 10 11 6 0 10 -2 10 -4z m-470 -10 c0 -3 -4 -8 -10 -11 -5
-3 -10 -1 -10 4 0 6 5 11 10 11 6 0 10 -2 10 -4z m540 -6 c8 -5 11 -10 5 -10
-5 0 -17 5 -25 10 -8 5 -10 10 -5 10 6 0 17 -5 25 -10z m-112 -25 c-3 -3 -9 2
-12 12 -6 14 -5 15 5 6 7 -7 10 -15 7 -18z m83 -5 c6 0 8 -4 4 -10 -6 -10 -45
18 -45 33 0 5 7 1 16 -7 8 -9 20 -16 25 -16z m-53 -25 c-3 -3 -9 2 -12 12 -6
14 -5 15 5 6 7 -7 10 -15 7 -18z m103 -25 c6 0 7 -5 4 -10 -4 -6 -12 -4 -21 5
-9 8 -20 15 -25 15 -6 0 -7 5 -4 10 4 6 12 4 21 -5 9 -8 20 -15 25 -15z m-530
-12 c8 -15 8 -18 0 -14 -6 4 -16 16 -22 28 -8 15 -8 18 0 14 6 -4 16 -16 22
-28z m49 18 c0 -3 -4 -8 -10 -11 -5 -3 -10 -1 -10 4 0 6 5 11 10 11 6 0 10 -2
10 -4z m427 -20 c0 -8 -6 -12 -15 -9 -11 5 -11 7 0 14 7 5 13 9 14 9 0 0 1 -6
1 -14z m-926 -16 c13 -10 18 -19 12 -20 -7 0 -13 4 -13 8 0 5 -10 14 -22 20
-13 6 -18 11 -12 11 7 1 22 -8 35 -19z m959 -15 c11 -13 10 -14 -4 -9 -9 3
-16 10 -16 15 0 13 6 11 20 -6z m-515 -15 c10 -11 16 -20 13 -20 -3 0 -13 9
-23 20 -10 11 -16 20 -13 20 3 0 13 -9 23 -20z m-480 0 c3 -5 1 -10 -4 -10 -6
0 -11 5 -11 10 0 6 2 10 4 10 3 0 8 -4 11 -10z m-23 -30 c12 -11 20 -22 17
-24 -2 -2 -15 7 -29 20 -13 13 -21 24 -17 24 4 0 17 -9 29 -20z m18 -143 c0
-9 -12 3 -45 43 -16 20 -13 19 13 -4 17 -17 32 -34 32 -39z m964 47 c5 -14 4
-15 -9 -4 -17 14 -19 20 -6 20 5 0 12 -7 15 -16z m-40 -23 c-2 -3 -12 3 -22
13 -16 17 -16 18 5 5 12 -7 20 -15 17 -18z m-434 -153 c0 -6 -6 -5 -15 2 -8 7
-15 14 -15 16 0 2 7 1 15 -2 8 -4 15 -11 15 -16z"/>
</g>
</svg>
